{"asset":{"generator":"glTF-Transform v4.3.0","version":"2.0"},"accessors":[{"type":"SCALAR","componentType":5123,"count":2070,"bufferView":0,"byteOffset":0},{"type":"VEC3","componentType":5122,"count":839,"normalized":true,"bufferView":1,"byteOffset":0},{"type":"VEC3","componentType":5122,"count":839,"max":[32767,17851,21135],"min":[-32767,-17851,-21135],"normalized":true,"bufferView":1,"byteOffset":8},{"type":"VEC2","componentType":5123,"count":839,"normalized":true,"bufferView":1,"byteOffset":16},{"type":"SCALAR","componentType":5123,"count":7200,"bufferView":2,"byteOffset":0},{"type":"VEC3","componentType":5122,"count":1386,"normalized":true,"bufferView":3,"byteOffset":0},{"type":"VEC3","componentType":5122,"count":1386,"max":[32767,30279,14934],"min":[-32767,-30279,-14934],"normalized":true,"bufferView":3,"byteOffset":8},{"type":"VEC2","componentType":5123,"count":1386,"normalized":true,"bufferView":3,"byteOffset":16},{"type":"SCALAR","componentType":5123,"count":372,"bufferView":4,"byteOffset":0},{"type":"VEC3","componentType":5122,"count":144,"normalized":true,"bufferView":5,"byteOffset":0},{"type":"VEC3","componentType":5122,"count":144,"max":[21425,25853,32767],"min":[-21425,-25853,-32767],"normalized":true,"bufferView":5,"byteOffset":8},{"type":"VEC2","componentType":5123,"count":144,"normalized":true,"bufferView":5,"byteOffset":16},{"type":"SCALAR","componentType":5123,"count":372,"bufferView":6,"byteOffset":0},{"type":"VEC3","componentType":5122,"count":144,"normalized":true,"bufferView":7,"byteOffset":0},{"type":"VEC3","componentType":5122,"count":144,"max":[21425,25853,32767],"min":[-21425,-25853,-32767],"normalized":true,"bufferView":7,"byteOffset":8},{"type":"VEC2","componentType":5123,"count":144,"normalized":true,"bufferView":7,"byteOffset":16},{"type":"SCALAR","componentType":5123,"count":1857,"bufferView":8,"byteOffset":0},{"type":"VEC3","componentType":5122,"count":818,"normalized":true,"bufferView":9,"byteOffset":0},{"type":"VEC3","componentType":5122,"count":818,"max":[32767,23037,32627],"min":[-32767,-23037,-32627],"normalized":true,"bufferView":9,"byteOffset":8},{"type":"VEC2","componentType":5123,"count":818,"normalized":true,"bufferView":9,"byteOffset":16},{"type":"SCALAR","componentType":5123,"count":600,"bufferView":10,"byteOffset":0},{"type":"VEC3","componentType":5122,"count":226,"normalized":true,"bufferView":11,"byteOffset":0},{"type":"VEC3","componentType":5122,"count":226,"max":[12818,14230,32767],"min":[-12818,-14230,-32767],"normalized":true,"bufferView":11,"byteOffset":8},{"type":"VEC2","componentType":5123,"count":226,"normalized":true,"bufferView":11,"byteOffset":16},{"type":"SCALAR","componentType":5123,"count":372,"bufferView":12,"byteOffset":0},{"type":"VEC3","componentType":5122,"count":144,"normalized":true,"bufferView":13,"byteOffset":0},{"type":"VEC3","componentType":5122,"count":144,"max":[21425,25853,32767],"min":[-21425,-25853,-32767],"normalized":true,"bufferView":13,"byteOffset":8},{"type":"VEC2","componentType":5123,"count":144,"normalized":true,"bufferView":13,"byteOffset":16},{"type":"SCALAR","componentType":5123,"count":720,"bufferView":14,"byteOffset":0},{"type":"VEC3","componentType":5122,"count":242,"normalized":true,"bufferView":15,"byteOffset":0},{"type":"VEC3","componentType":5122,"count":242,"max":[32767,30951,8430],"min":[-32767,-30951,-8430],"normalized":true,"bufferView":15,"byteOffset":8},{"type":"VEC2","componentType":5123,"count":242,"normalized":true,"bufferView":15,"byteOffset":16},{"type":"SCALAR","componentType":5123,"count":372,"bufferView":16,"byteOffset":0},{"type":"VEC3","componentType":5122,"count":144,"normalized":true,"bufferView":17,"byteOffset":0},{"type":"VEC3","componentType":5122,"count":144,"max":[21425,25853,32767],"min":[-21425,-25853,-32767],"normalized":true,"bufferView":17,"byteOffset":8},{"type":"VEC2","componentType":5123,"count":144,"normalized":true,"bufferView":17,"byteOffset":16},{"type":"SCALAR","componentType":5123,"count":1560,"bufferView":18,"byteOffset":0},{"type":"VEC3","componentType":5122,"count":330,"normalized":true,"bufferView":19,"byteOffset":0},{"type":"VEC3","componentType":5122,"count":330,"max":[32767,20761,32767],"min":[-32767,-20761,-32767],"normalized":true,"bufferView":19,"byteOffset":8},{"type":"VEC2","componentType":5123,"count":330,"normalized":true,"bufferView":19,"byteOffset":16},{"type":"SCALAR","componentType":5123,"count":3024,"bufferView":20,"byteOffset":0},{"type":"VEC3","componentType":5122,"count":578,"normalized":true,"bufferView":21,"byteOffset":0},{"type":"VEC3","componentType":5122,"count":578,"max":[31243,32767,32767],"min":[-31243,-32767,-32767],"normalized":true,"bufferView":21,"byteOffset":8},{"type":"VEC2","componentType":5123,"count":578,"normalized":true,"bufferView":21,"byteOffset":16},{"type":"SCALAR","componentType":5123,"count":3024,"bufferView":22,"byteOffset":0},{"type":"VEC3","componentType":5122,"count":578,"normalized":true,"bufferView":23,"byteOffset":0},{"type":"VEC3","componentType":5122,"count":578,"max":[31243,32767,32767],"min":[-31243,-32767,-32767],"normalized":true,"bufferView":23,"byteOffset":8},{"type":"VEC2","componentType":5123,"count":578,"normalized":true,"bufferView":23,"byteOffset":16},{"type":"SCALAR","componentType":5123,"count":219,"bufferView":24,"byteOffset":0},{"type":"VEC3","componentType":5122,"count":62,"normalized":true,"bufferView":25,"byteOffset":0},{"type":"VEC3","componentType":5122,"count":62,"max":[32767,30967,14440],"min":[-32767,-30967,-14440],"normalized":true,"bufferView":25,"byteOffset":8},{"type":"VEC2","componentType":5123,"count":62,"normalized":true,"bufferView":25,"byteOffset":16},{"type":"SCALAR","componentType":5123,"count":1584,"bufferView":26,"byteOffset":0},{"type":"VEC3","componentType":5122,"count":544,"normalized":true,"bufferView":27,"byteOffset":0},{"type":"VEC3","componentType":5122,"count":544,"max":[32767,31797,12406],"min":[-32767,-31797,-12406],"normalized":true,"bufferView":27,"byteOffset":8},{"type":"VEC2","componentType":5123,"count":544,"normalized":true,"bufferView":27,"byteOffset":16},{"type":"SCALAR","componentType":5123,"count":1212,"bufferView":28,"byteOffset":0},{"type":"VEC3","componentType":5122,"count":222,"normalized":true,"bufferView":29,"byteOffset":0},{"type":"VEC3","componentType":5122,"count":222,"max":[32767,32537,28135],"min":[-32767,-32537,-28135],"normalized":true,"bufferView":29,"byteOffset":8},{"type":"VEC2","componentType":5123,"count":222,"normalized":true,"bufferView":29,"byteOffset":16},{"type":"SCALAR","componentType":5123,"count":102,"bufferView":30,"byteOffset":0},{"type":"VEC3","componentType":5122,"count":36,"normalized":true,"bufferView":31,"byteOffset":0},{"type":"VEC3","componentType":5122,"count":36,"max":[32767,0,18431],"min":[-32767,0,-18431],"normalized":true,"bufferView":31,"byteOffset":8},{"type":"VEC2","componentType":5123,"count":36,"normalized":true,"bufferView":31,"byteOffset":16},{"type":"SCALAR","componentType":5123,"count":600,"bufferView":32,"byteOffset":0},{"type":"VEC3","componentType":5122,"count":226,"normalized":true,"bufferView":33,"byteOffset":0},{"type":"VEC3","componentType":5122,"count":226,"max":[12818,14230,32767],"min":[-12818,-14230,-32767],"normalized":true,"bufferView":33,"byteOffset":8},{"type":"VEC2","componentType":5123,"count":226,"normalized":true,"bufferView":33,"byteOffset":16},{"type":"SCALAR","componentType":5123,"count":1170,"bufferView":34,"byteOffset":0},{"type":"VEC3","componentType":5122,"count":428,"normalized":true,"bufferView":35,"byteOffset":0},{"type":"VEC3","componentType":5122,"count":428,"max":[32767,3090,18431],"min":[-32767,-3090,-18431],"normalized":true,"bufferView":35,"byteOffset":8},{"type":"VEC2","componentType":5123,"count":428,"normalized":true,"bufferView":35,"byteOffset":16}],"bufferViews":[{"buffer":0,"byteOffset":0,"byteLength":4140,"target":34963},{"buffer":0,"byteOffset":4140,"byteLength":16780,"byteStride":20,"target":34962},{"buffer":1,"byteOffset":0,"byteLength":14400,"target":34963},{"buffer":1,"byteOffset":14400,"byteLength":27720,"byteStride":20,"target":34962},{"buffer":2,"byteOffset":0,"byteLength":744,"target":34963},{"buffer":2,"byteOffset":744,"byteLength":2880,"byteStride":20,"target":34962},{"buffer":3,"byteOffset":0,"byteLength":744,"target":34963},{"buffer":3,"byteOffset":744,"byteLength":2880,"byteStride":20,"target":34962},{"buffer":4,"byteOffset":0,"byteLength":3716,"target":34963},{"buffer":4,"byteOffset":3716,"byteLength":16360,"byteStride":20,"target":34962},{"buffer":5,"byteOffset":0,"byteLength":1200,"target":34963},{"buffer":5,"byteOffset":1200,"byteLength":4520,"byteStride":20,"target":34962},{"buffer":6,"byteOffset":0,"byteLength":744,"target":34963},{"buffer":6,"byteOffset":744,"byteLength":2880,"byteStride":20,"target":34962},{"buffer":7,"byteOffset":0,"byteLength":1440,"target":34963},{"buffer":7,"byteOffset":1440,"byteLength":4840,"byteStride":20,"target":34962},{"buffer":8,"byteOffset":0,"byteLength":744,"target":34963},{"buffer":8,"byteOffset":744,"byteLength":2880,"byteStride":20,"target":34962},{"buffer":9,"byteOffset":0,"byteLength":3120,"target":34963},{"buffer":9,"byteOffset":3120,"byteLength":6600,"byteStride":20,"target":34962},{"buffer":10,"byteOffset":0,"byteLength":6048,"target":34963},{"buffer":10,"byteOffset":6048,"byteLength":11560,"byteStride":20,"target":34962},{"buffer":11,"byteOffset":0,"byteLength":6048,"target":34963},{"buffer":11,"byteOffset":6048,"byteLength":11560,"byteStride":20,"target":34962},{"buffer":12,"byteOffset":0,"byteLength":440,"target":34963},{"buffer":12,"byteOffset":440,"byteLength":1240,"byteStride":20,"target":34962},{"buffer":13,"byteOffset":0,"byteLength":3168,"target":34963},{"buffer":13,"byteOffset":3168,"byteLength":10880,"byteStride":20,"target":34962},{"buffer":14,"byteOffset":0,"byteLength":2424,"target":34963},{"buffer":14,"byteOffset":2424,"byteLength":4440,"byteStride":20,"target":34962},{"buffer":15,"byteOffset":0,"byteLength":204,"target":34963},{"buffer":15,"byteOffset":204,"byteLength":720,"byteStride":20,"target":34962},{"buffer":16,"byteOffset":0,"byteLength":1200,"target":34963},{"buffer":16,"byteOffset":1200,"byteLength":4520,"byteStride":20,"target":34962},{"buffer":17,"byteOffset":0,"byteLength":2340,"target":34963},{"buffer":17,"byteOffset":2340,"byteLength":8560,"byteStride":20,"target":34962}],"samplers":[{"wrapS":10497,"wrapT":10497}],"textures":[{"source":1,"sampler":0},{"source":0,"sampler":0},{"source":4,"sampler":0},{"source":2,"sampler":0},{"source":3,"sampler":0}],"images":[{"name":"Screen_1_Color","mimeType":"image/png","uri":"82f7622c553a011ccb45883b167253b8.png"},{"name":"Screen_2_Color","mimeType":"image/png","uri":"288d754a3fb5199c07278aa1e889259c.png"},{"name":"Robot_mat_Emissive","mimeType":"image/png","uri":"cf3bcdd483ef6bf07dc1fba58d988ef6.png"},{"name":"Robot_mat_ORM","mimeType":"image/png","uri":"86677bb00f5b899e5b8123e68b1e4d7b.png"},{"name":"Robot_mat_Color","mimeType":"image/png","uri":"c6378ca88952228817e344695bd6ec8c.png"}],"buffers":[{"uri":"robot_bin/buffer_1.bin","byteLength":20920},{"uri":"robot_bin/buffer_2.bin","byteLength":42120},{"uri":"robot_bin/buffer_3.bin","byteLength":3624},{"uri":"robot_bin/buffer_4.bin","byteLength":3624},{"uri":"robot_bin/buffer_5.bin","byteLength":20076},{"uri":"robot_bin/buffer_6.bin","byteLength":5720},{"uri":"robot_bin/buffer_7.bin","byteLength":3624},{"uri":"robot_bin/buffer_8.bin","byteLength":6280},{"uri":"robot_bin/buffer_9.bin","byteLength":3624},{"uri":"robot_bin/buffer_10.bin","byteLength":9720},{"uri":"robot_bin/buffer_11.bin","byteLength":17608},{"uri":"robot_bin/buffer_12.bin","byteLength":17608},{"uri":"robot_bin/buffer_13.bin","byteLength":1680},{"uri":"robot_bin/buffer_14.bin","byteLength":14048},{"uri":"robot_bin/buffer_15.bin","byteLength":6864},{"uri":"robot_bin/buffer_16.bin","byteLength":924},{"uri":"robot_bin/buffer_17.bin","byteLength":5720},{"uri":"robot_bin/buffer_18.bin","byteLength":10900}],"materials":[{"name":"Screen2_mat","doubleSided":true,"pbrMetallicRoughness":{"roughnessFactor":0.05000000074505806,"metallicFactor":0,"baseColorTexture":{"index":0}},"emissiveFactor":[1,1,1],"emissiveTexture":{"index":0}},{"name":"Screen1_mat","doubleSided":true,"pbrMetallicRoughness":{"roughnessFactor":0.05000000074505806,"metallicFactor":0,"baseColorTexture":{"index":1}},"emissiveFactor":[1,1,1],"emissiveTexture":{"index":1}},{"name":"Robot_mat","doubleSided":true,"pbrMetallicRoughness":{"baseColorTexture":{"index":2},"metallicRoughnessTexture":{"index":4}},"emissiveFactor":[1,1,1],"emissiveTexture":{"index":3},"occlusionTexture":{"index":4}}],"meshes":[{"name":"Mesh.005","primitives":[{"attributes":{"NORMAL":49,"POSITION":50,"TEXCOORD_0":51},"mode":4,"material":0,"indices":48}]},{"name":"Mesh.013","primitives":[{"attributes":{"NORMAL":13,"POSITION":14,"TEXCOORD_0":15},"mode":4,"material":2,"indices":12}]},{"name":"Mesh.010","primitives":[{"attributes":{"NORMAL":41,"POSITION":42,"TEXCOORD_0":43},"mode":4,"material":2,"indices":40}]},{"name":"Mesh.008","primitives":[{"attributes":{"NORMAL":25,"POSITION":26,"TEXCOORD_0":27},"mode":4,"material":2,"indices":24}]},{"name":"Mesh.004","primitives":[{"attributes":{"NORMAL":17,"POSITION":18,"TEXCOORD_0":19},"mode":4,"material":2,"indices":16}]},{"name":"Mesh.017","primitives":[{"attributes":{"NORMAL":5,"POSITION":6,"TEXCOORD_0":7},"mode":4,"material":2,"indices":4}]},{"name":"Mesh.006","primitives":[{"attributes":{"NORMAL":45,"POSITION":46,"TEXCOORD_0":47},"mode":4,"material":2,"indices":44}]},{"name":"Mesh.009","primitives":[{"attributes":{"NORMAL":33,"POSITION":34,"TEXCOORD_0":35},"mode":4,"material":2,"indices":32}]},{"name":"Mesh.016","primitives":[{"attributes":{"NORMAL":57,"POSITION":58,"TEXCOORD_0":59},"mode":4,"material":2,"indices":56}]},{"name":"Mesh.011","primitives":[{"attributes":{"NORMAL":21,"POSITION":22,"TEXCOORD_0":23},"mode":4,"material":2,"indices":20}]},{"name":"Mesh.001","primitives":[{"attributes":{"NORMAL":61,"POSITION":62,"TEXCOORD_0":63},"mode":4,"material":1,"indices":60}]},{"name":"Mesh.015","primitives":[{"attributes":{"NORMAL":29,"POSITION":30,"TEXCOORD_0":31},"mode":4,"material":2,"indices":28}]},{"name":"Mesh.007","primitives":[{"attributes":{"NORMAL":65,"POSITION":66,"TEXCOORD_0":67},"mode":4,"material":2,"indices":64}]},{"name":"Mesh.003","primitives":[{"attributes":{"NORMAL":1,"POSITION":2,"TEXCOORD_0":3},"mode":4,"material":2,"indices":0}]},{"name":"Mesh.012","primitives":[{"attributes":{"NORMAL":9,"POSITION":10,"TEXCOORD_0":11},"mode":4,"material":2,"indices":8}]},{"name":"Mesh.014","primitives":[{"attributes":{"NORMAL":53,"POSITION":54,"TEXCOORD_0":55},"mode":4,"material":2,"indices":52}]},{"name":"Mesh.002","primitives":[{"attributes":{"NORMAL":69,"POSITION":70,"TEXCOORD_0":71},"mode":4,"material":2,"indices":68}]},{"name":"Mesh","primitives":[{"attributes":{"NORMAL":37,"POSITION":38,"TEXCOORD_0":39},"mode":4,"material":2,"indices":36}]}],"nodes":[{"name":"Body_Case_geo","extras":{"meta_spatial":{"entity_id":"Body_Case_geo"}},"translation":[0,47.63502502441406,0],"scale":[29.00800323486328,29.00800323486328,29.00800323486328],"mesh":4},{"name":"Body_Screen_geo","extras":{"meta_spatial":{"entity_id":"Body_Screen_geo"}},"translation":[0.00000762939453125,50.88852119445801,20.459569931030273],"scale":[17.770755767822266,17.770755767822266,17.770755767822266],"mesh":0},{"name":"Top_Body","extras":{"meta_spatial":{"entity_id":"Top_Body"}},"translation":[0,0,0.6738220453262329],"rotation":[-0.7071068286895752,0,0,0.7071068286895752],"scale":[0.7055826187133789,0.7055826187133789,0.7055826187133789],"children":[5,0,1]},{"name":"Finger_R2","extras":{"meta_spatial":{"entity_id":"Finger_R2"}},"translation":[-27.896985054016113,-4.815954566001892,-6.813706874847412],"scale":[2.773355007171631,2.773355007171631,2.773355007171631],"mesh":14},{"name":"Finger_R1","extras":{"meta_spatial":{"entity_id":"Finger_R1"}},"translation":[-27.896985054016113,0.8259730935096741,-6.813706874847412],"scale":[2.773355007171631,2.773355007171631,2.773355007171631],"mesh":1},{"name":"Back_geo","extras":{"meta_spatial":{"entity_id":"Back_geo"}},"translation":[0,53.498857498168945,-7.983307838439941],"scale":[26.673301696777344,26.673301696777344,26.673301696777344],"mesh":13},{"name":"Finger_L1","extras":{"meta_spatial":{"entity_id":"Finger_L1"}},"translation":[27.896985054016113,0.8259730935096741,-6.813706874847412],"scale":[2.773355007171631,2.773355007171631,2.773355007171631],"mesh":7},{"name":"Thrusters_geo","extras":{"meta_spatial":{"entity_id":"Thrusters_geo"}},"translation":[0,2.3737783432006836,3.4752306938171387],"scale":[14.234848022460938,14.234848022460938,14.234848022460938],"mesh":5},{"name":"Middle_Section_geo","extras":{"meta_spatial":{"entity_id":"Middle_Section_geo"}},"translation":[-0.00000286102294921875,-0.9010839462280273,-9.986144125461578],"scale":[22.769959449768066,22.769959449768066,22.769959449768066],"mesh":15},{"name":"Outer_geo","extras":{"meta_spatial":{"entity_id":"Outer_geo"}},"translation":[0,0,-8.8488450050354],"scale":[18.83778953552246,18.83778953552246,18.83778953552246],"mesh":8},{"name":"Finger_L2","extras":{"meta_spatial":{"entity_id":"Finger_L2"}},"translation":[27.896985054016113,-4.815954566001892,-6.813706874847412],"scale":[2.773355007171631,2.773355007171631,2.773355007171631],"mesh":3},{"name":"Face_Case_geo","extras":{"meta_spatial":{"entity_id":"Face_Case_geo"}},"translation":[0.00001049041748046875,4.909573912620544,-61.42399787902832],"scale":[20.915589332580566,20.915589332580566,20.915589332580566],"mesh":16},{"name":"Arm","extras":{"meta_spatial":{"entity_id":"Arm"}},"children":[6,10,25]},{"name":"Shoulder_R_geo","extras":{"meta_spatial":{"entity_id":"Shoulder_R_geo"}},"children":[15,22]},{"name":"Ball_geo","extras":{"meta_spatial":{"entity_id":"Ball_geo"}},"translation":[0.00000667572021484375,-1.92852783203125,-60.00016975402832],"scale":[8.067089080810547,8.067089080810547,8.067089080810547],"mesh":17},{"name":"Arm.001","extras":{"meta_spatial":{"entity_id":"Arm.001"}},"children":[4,3,24]},{"name":"Lower_Sphere","extras":{"meta_spatial":{"entity_id":"Lower_Sphere"}},"children":[18,9]},{"name":"Face_Screen_geo","extras":{"meta_spatial":{"entity_id":"Face_Screen_geo"}},"translation":[0.00001049041748046875,6.881360769271851,-61.42399787902832],"scale":[20.915589332580566,20.915589332580566,20.915589332580566],"mesh":10},{"name":"Inner_geo","extras":{"meta_spatial":{"entity_id":"Inner_geo"}},"translation":[0,1.9481306076049805,3.238023042678833],"scale":[15.88626480102539,15.88626480102539,15.88626480102539],"mesh":11},{"name":"Head","extras":{"meta_spatial":{"entity_id":"Head"}},"children":[14,11,17]},{"name":"Shoulder_L_geo","extras":{"meta_spatial":{"entity_id":"Shoulder_L_geo"}},"children":[12,23]},{"name":"Robot_01","extras":{"meta_spatial":{"entity_id":"Robot_01"}},"translation":[0,-0.29730120301246643,-3.4458935260772705e-8],"rotation":[0.7071068286895752,0,0,0.7071068286895752],"scale":[0.009999999776482582,0.009999999776482582,0.009999999776482582],"children":[19,16,8,20,13,7,2]},{"translation":[-16.64022445678711,-1.8598191738128662,-39.63325309753418],"scale":[6.15235710144043,6.15235710144043,6.15235710144043],"mesh":2},{"translation":[16.64022445678711,-1.8598191738128662,-39.63325309753418],"scale":[6.15235710144043,6.15235710144043,6.15235710144043],"mesh":6},{"translation":[-23.794774055480957,-1.9949910640716553,-21.41683292388916],"scale":[12.699538230895996,12.699538230895996,12.699538230895996],"mesh":9},{"translation":[23.794774055480957,-1.9949910640716553,-21.41683292388916],"scale":[12.699538230895996,12.699538230895996,12.699538230895996],"mesh":12}],"scenes":[{"nodes":[21]}],"scene":0,"extensionsUsed":["KHR_mesh_quantization"],"extensionsRequired":["KHR_mesh_quantization"]}