{"asset":{"generator":"glTF-Transform v4.3.0","version":"2.0"},"accessors":[{"type":"SCALAR","componentType":5123,"count":6096,"bufferView":0,"byteOffset":0},{"type":"VEC3","componentType":5122,"count":1299,"normalized":true,"bufferView":1,"byteOffset":0},{"type":"VEC3","componentType":5122,"count":1299,"max":[19833,32767,22315],"min":[-19833,-32767,-22315],"normalized":true,"bufferView":1,"byteOffset":8},{"type":"VEC2","componentType":5123,"count":1299,"normalized":true,"bufferView":1,"byteOffset":16}],"bufferViews":[{"buffer":0,"byteOffset":0,"byteLength":12192,"target":34963},{"buffer":0,"byteOffset":12192,"byteLength":25980,"byteStride":20,"target":34962}],"samplers":[{"wrapS":10497,"wrapT":10497}],"textures":[{"source":2,"sampler":0},{"source":0,"sampler":0},{"source":1,"sampler":0}],"images":[{"name":"PlantSansevieria_Normal","mimeType":"image/png","uri":"f1569237527b16131ce98cd7bc94c74e.png"},{"name":"PlantSansevieria_ORM","mimeType":"image/png","uri":"d4978425948a18d0f8e31f98232b81c1.png"},{"name":"PlantSansevieria_Color","mimeType":"image/png","uri":"74dfc45d02dc82b12e5f78f746595698.png"}],"buffers":[{"uri":"plantSansevieria_bin/buffer.bin","byteLength":38172}],"materials":[{"name":"PlantSansevieria_mat","doubleSided":true,"pbrMetallicRoughness":{"baseColorTexture":{"index":0},"metallicRoughnessTexture":{"index":2}},"normalTexture":{"index":1}}],"meshes":[{"name":"PlantSansevieria_geo","primitives":[{"attributes":{"NORMAL":1,"POSITION":2,"TEXCOORD_0":3},"mode":4,"material":0,"indices":0}]}],"nodes":[{"name":"PlantSansevieria","extras":{"meta_spatial":{"entity_id":"PlantSansevieria1"}},"translation":[-0.0006388500332832336,0.14138564467430115,-0.02602250874042511],"scale":[0.2400195300579071,0.2400195300579071,0.2400195300579071],"mesh":0}],"scenes":[{"nodes":[0]}],"scene":0,"extensionsUsed":["KHR_mesh_quantization"],"extensionsRequired":["KHR_mesh_quantization"]}