{"asset":{"generator":"glTF-Transform v4.3.0","version":"2.0"},"accessors":[{"type":"SCALAR","componentType":5123,"count":3588,"bufferView":0,"byteOffset":0},{"type":"VEC3","componentType":5122,"count":1001,"normalized":true,"bufferView":1,"byteOffset":0},{"type":"VEC3","componentType":5122,"count":1001,"max":[32767,13258,7804],"min":[-32767,-13258,-7804],"normalized":true,"bufferView":1,"byteOffset":8},{"type":"VEC2","componentType":5123,"count":1001,"normalized":true,"bufferView":1,"byteOffset":16},{"type":"SCALAR","componentType":5123,"count":6336,"bufferView":2,"byteOffset":0},{"type":"VEC3","componentType":5122,"count":2103,"normalized":true,"bufferView":3,"byteOffset":0},{"type":"VEC3","componentType":5122,"count":2103,"max":[32767,29395,2072],"min":[-32767,-29395,-2072],"normalized":true,"bufferView":3,"byteOffset":8},{"type":"VEC2","componentType":5123,"count":2103,"normalized":true,"bufferView":3,"byteOffset":16},{"type":"SCALAR","componentType":5123,"count":1356,"bufferView":4,"byteOffset":0},{"type":"VEC3","componentType":5122,"count":543,"normalized":true,"bufferView":5,"byteOffset":0},{"type":"VEC3","componentType":5122,"count":543,"max":[32767,21849,13822],"min":[-32767,-21849,-13822],"normalized":true,"bufferView":5,"byteOffset":8},{"type":"VEC2","componentType":5123,"count":543,"normalized":true,"bufferView":5,"byteOffset":16},{"type":"SCALAR","componentType":5123,"count":46752,"bufferView":6,"byteOffset":0},{"type":"VEC3","componentType":5122,"count":12696,"normalized":true,"bufferView":7,"byteOffset":0},{"type":"VEC3","componentType":5122,"count":12696,"max":[32767,29943,4174],"min":[-32767,-29943,-4174],"normalized":true,"bufferView":7,"byteOffset":8},{"type":"VEC2","componentType":5123,"count":12696,"normalized":true,"bufferView":7,"byteOffset":16}],"bufferViews":[{"buffer":0,"byteOffset":0,"byteLength":7176,"target":34963},{"buffer":0,"byteOffset":7176,"byteLength":20020,"byteStride":20,"target":34962},{"buffer":1,"byteOffset":0,"byteLength":12672,"target":34963},{"buffer":1,"byteOffset":12672,"byteLength":42060,"byteStride":20,"target":34962},{"buffer":2,"byteOffset":0,"byteLength":2712,"target":34963},{"buffer":2,"byteOffset":2712,"byteLength":10860,"byteStride":20,"target":34962},{"buffer":3,"byteOffset":0,"byteLength":93504,"target":34963},{"buffer":3,"byteOffset":93504,"byteLength":253920,"byteStride":20,"target":34962}],"samplers":[{"wrapS":10497,"wrapT":10497}],"textures":[{"source":0,"sampler":0},{"source":1,"sampler":0},{"source":2,"sampler":0}],"images":[{"name":"ceilingBake_beauty","mimeType":"image/jpeg","uri":"fdcc7a0dae2c9b19ef712deb4a2d287c.jpg"},{"name":"deskScreenBake_beauty","mimeType":"image/jpeg","uri":"d022feed3df22c33fedf823eab2fb76a.jpg"},{"name":"floorDeskScreenBake_beauty","mimeType":"image/jpeg","uri":"de62cd3b4ecfca5e0179c8f217ba59fe.jpg"}],"buffers":[{"uri":"environmentDesk_bin/buffer_1.bin","byteLength":27196},{"uri":"environmentDesk_bin/buffer_2.bin","byteLength":54732},{"uri":"environmentDesk_bin/buffer_3.bin","byteLength":13572},{"uri":"environmentDesk_bin/buffer_4.bin","byteLength":347424}],"materials":[{"name":"ceilingBake_mat","doubleSided":true,"pbrMetallicRoughness":{"roughnessFactor":0.5,"metallicFactor":0,"baseColorTexture":{"index":0}}},{"name":"deskScreenBake_mat","doubleSided":true,"pbrMetallicRoughness":{"roughnessFactor":0.5,"metallicFactor":0,"baseColorTexture":{"index":1}}},{"name":"floorBake_mat","doubleSided":true,"pbrMetallicRoughness":{"roughnessFactor":0.5,"metallicFactor":0,"baseColorTexture":{"index":2}}}],"meshes":[{"name":"Mesh.009","primitives":[{"attributes":{"NORMAL":1,"POSITION":2,"TEXCOORD_0":3},"mode":4,"material":1,"indices":0}]},{"name":"Mesh.036","primitives":[{"attributes":{"NORMAL":5,"POSITION":6,"TEXCOORD_0":7},"mode":4,"material":0,"indices":4}]},{"name":"Mesh.034","primitives":[{"attributes":{"NORMAL":9,"POSITION":10,"TEXCOORD_0":11},"mode":4,"material":1,"indices":8}]},{"name":"Mesh.037","primitives":[{"attributes":{"NORMAL":13,"POSITION":14,"TEXCOORD_0":15},"mode":4,"material":2,"indices":12}]}],"nodes":[{"name":"tableSurface_geo","extras":{"meta_spatial":{"entity_id":"tableSurface_geo"}},"translation":[1.5258788721439487e-7,0.4279433855928694,2.1891513632262387],"rotation":[0.7071068882942236,0,0,0.7071066740788552],"scale":[1.7965552882129998,1.796555394036811,1.796555394036811],"mesh":0},{"name":"ceiling_geo.002","extras":{"meta_spatial":{"entity_id":"ceiling_geo.002"}},"translation":[-9.155273232863692e-7,3.8621374394060304,1.0085046248517695],"rotation":[0.7071068882942236,0,0,0.7071066740788552],"scale":[5.920800954085564,5.920801302842837,5.920801302842837],"mesh":1},{"name":"backWall_geo","extras":{"meta_spatial":{"entity_id":"backWall_geo"}},"translation":[-0.10755917298865167,1.015950142841366,-1.272670356736676],"rotation":[0.683012661659633,0.18301267251098363,-0.18301267850691574,0.6830127524200644],"scale":[2.408335428958317,2.408335350055494,2.4083351257617807],"mesh":2},{"name":"floorBase_geo.002","extras":{"meta_spatial":{"entity_id":"floorBase_geo.002"}},"translation":[3.0517577442878974e-7,-0.08125513944993315,0.8373346007169036],"rotation":[0.7071068882942236,0,0,0.7071066740788552],"scale":[8.621762197425312,8.621762705279282,8.621762705279282],"mesh":3}],"scenes":[{"nodes":[3,2,1,0]}],"scene":0,"extensionsUsed":["KHR_mesh_quantization"],"extensionsRequired":["KHR_mesh_quantization"]}